<?xml version="1.0" standalone="no"?>
<!DOCTYPE svg PUBLIC "-//W3C//DTD SVG 20010904//EN"
 "http://www.w3.org/TR/2001/REC-SVG-20010904/DTD/svg10.dtd">
<svg version="1.0" xmlns="http://www.w3.org/2000/svg"
 width="401.000000pt" height="250.000000pt" viewBox="0 0 401.000000 250.000000"
 preserveAspectRatio="xMidYMid meet">

<g transform="translate(0.000000,250.000000) scale(0.100000,-0.100000)"
fill="#000000" stroke="none">
<path d="M0 1250 l0 -1250 79 0 c54 0 81 4 84 13 4 9 6 9 6 0 1 -10 353 -13
1726 -13 1002 0 1725 4 1725 9 0 9 -12 12 -132 29 -36 5 -71 12 -76 16 -5 3
-34 6 -63 7 -30 1 -58 4 -64 7 -11 7 -49 10 -175 15 -82 4 -111 9 -155 26 -26
11 -187 40 -250 46 -65 5 -230 31 -320 50 -38 8 -92 17 -120 19 -52 5 -206 28
-310 47 -33 6 -96 13 -140 15 -44 3 -89 9 -100 14 -11 5 -36 11 -55 14 -29 3
-27 4 10 4 25 -1 52 2 60 5 45 15 160 29 172 20 15 -11 75 -29 128 -38 19 -4
71 -13 115 -22 44 -8 100 -17 125 -19 25 -3 56 -7 70 -11 14 -3 32 -7 40 -8 8
-2 44 -10 80 -18 36 -9 90 -19 120 -21 69 -7 244 -41 260 -51 7 -4 46 -9 89
-11 42 -3 96 -7 121 -9 25 -3 52 -6 60 -7 8 -1 21 -7 28 -15 15 -15 38 -16 97
-4 30 5 44 4 54 -6 7 -8 18 -12 24 -10 7 2 18 -3 25 -12 8 -9 11 -10 7 -4 -10
20 75 9 119 -15 5 -3 6 0 2 6 -9 15 -17 15 155 -3 247 -26 353 -42 357 -54 2
-6 10 -11 18 -11 12 0 14 62 14 404 0 377 -1 405 -17 410 -10 3 -62 4 -116 2
-54 -2 -96 -2 -94 1 12 11 126 33 172 33 l55 0 0 198 c-1 152 -4 203 -15 222
-9 15 -15 19 -15 10 0 -12 -3 -11 -11 3 -6 9 -13 16 -17 13 -4 -2 -16 6 -27
17 -11 11 -15 17 -9 14 6 -3 11 0 11 8 0 20 -13 19 -21 -1 -3 -8 -10 -12 -16
-9 -5 3 -7 0 -4 -8 3 -8 0 -18 -7 -23 -7 -4 -10 -3 -6 3 12 19 -17 31 -61 28
-38 -3 -41 -2 -26 9 26 20 28 49 2 40 -12 -4 -24 -1 -30 7 -7 10 -8 6 -5 -14
2 -15 0 -30 -6 -34 -6 -3 -7 -1 -3 5 4 7 2 12 -4 12 -6 0 -8 5 -5 10 3 6 -1
10 -9 10 -10 0 -13 -6 -9 -17 6 -15 5 -16 -9 -3 -18 17 -14 30 8 30 8 0 14 5
14 11 0 6 -7 8 -16 5 -8 -3 -12 -2 -9 4 11 17 -11 11 -39 -11 -14 -11 -26 -16
-26 -11 0 15 46 52 65 52 14 0 16 3 8 11 -8 8 -18 6 -36 -6 -15 -9 -40 -15
-59 -13 -20 2 -33 -2 -33 -9 0 -6 -3 -14 -6 -18 -4 -3 -6 5 -5 17 1 20 -3 23
-33 20 -18 -2 -31 0 -28 5 3 5 -10 8 -29 8 -27 -1 -34 2 -29 13 5 13 3 13 -12
1 -11 -9 -14 -10 -9 -1 5 8 1 12 -10 12 -17 0 -16 1 1 13 12 10 14 16 7 21 -7
4 -12 1 -12 -6 0 -9 -3 -9 -10 2 -8 12 -10 10 -11 -10 -1 -18 -3 -20 -6 -7 -2
10 -12 16 -21 15 -9 -2 -18 4 -18 12 -1 8 -2 22 -3 30 -1 13 -3 13 -10 1 -10
-15 -16 -10 -134 98 -36 33 -37 38 -35 89 2 29 9 58 16 64 16 14 15 33 -3 52
-21 21 -22 164 -2 205 13 25 13 33 1 48 -9 12 -13 47 -14 102 0 67 3 87 18
100 9 9 17 21 18 26 3 60 19 137 30 146 29 24 11 29 -100 29 l-114 0 -6 -32
c-7 -38 -7 -28 -7 -165 1 -275 2 -327 7 -335 3 -4 0 -8 -5 -8 -6 0 -11 12 -11
27 0 19 -15 42 -51 79 l-51 52 -4 109 c-3 59 -5 119 -5 132 -1 14 7 31 18 39
17 13 17 14 -4 7 -22 -6 -23 -4 -23 44 l0 51 -101 0 -102 0 6 -130 6 -130
-102 -51 c-56 -27 -94 -43 -84 -35 16 12 18 30 16 147 -2 188 -4 199 -41 199
l-30 0 3 -192 c3 -183 2 -193 -17 -203 -10 -5 -50 -27 -87 -48 -71 -40 -97
-44 -52 -9 l27 21 -73 113 c-69 107 -101 152 -85 118 4 -8 -1 -5 -12 8 -11 12
-26 22 -34 22 -7 0 -22 14 -33 30 -11 17 -29 30 -40 30 -11 0 -15 -4 -10 -8 6
-4 10 -14 10 -22 -1 -20 19 -40 39 -40 9 0 16 -4 16 -8 0 -5 -13 -8 -29 -8
-19 0 -28 4 -27 15 1 9 -5 15 -12 13 -8 -1 -11 2 -8 7 4 5 2 12 -3 15 -5 4
-12 2 -16 -4 -4 -7 -13 -6 -28 2 -30 16 -80 21 -71 7 4 -8 0 -8 -14 0 -75 40
-140 -40 -196 -245 l-25 -89 0 238 -1 238 -22 -3 -23 -3 -3 -433 c-3 -446 -4
-462 -41 -462 -7 0 -12 123 -14 388 l-2 387 -2 -393 -2 -393 -23 -19 -23 -19
22 2 c12 0 19 5 16 11 -4 5 1 7 11 3 10 -4 20 -7 22 -7 2 0 4 -13 4 -29 0 -27
-6 -33 -60 -57 -33 -15 -65 -33 -71 -40 -6 -8 -16 -14 -21 -14 -9 0 -5 463 7
937 1 72 1 134 -2 137 -6 5 -43 -25 -43 -36 0 -5 5 -7 11 -5 17 3 19 -31 3
-37 -8 -3 -14 -10 -14 -16 0 -6 4 -8 10 -5 11 7 13 -2 10 -59 -1 -22 -9 -51
-17 -65 -10 -17 -10 -20 -1 -10 11 14 13 -46 10 -395 -3 -276 -8 -418 -15
-431 -6 -11 -12 -33 -13 -50 -2 -50 -4 -56 -13 -51 -5 4 -23 -5 -40 -19 -25
-22 -31 -35 -34 -78 -2 -29 -5 81 -7 243 l-3 295 -8 -260 c-8 -315 -17 -500
-25 -532 -6 -22 -7 -23 -20 -6 -7 10 -13 23 -14 28 0 6 5 3 10 -5 6 -9 10 -10
10 -3 0 6 -4 15 -10 18 -5 3 -10 15 -10 26 0 10 -6 19 -14 19 -9 0 -12 -7 -9
-19 3 -11 0 -28 -6 -38 -9 -16 -10 -16 -11 6 0 21 -2 22 -17 10 -15 -13 -16
-12 -11 9 6 23 6 24 -52 26 l-35 1 -3 73 c-2 58 0 73 13 78 26 11 16 21 -26
28 -23 4 -39 9 -37 12 3 3 2 21 -2 40 -7 32 -3 39 22 35 4 0 5 6 2 14 -4 8
-10 15 -15 15 -4 0 -6 7 -3 15 4 8 1 15 -6 15 -6 0 -10 -8 -9 -17 1 -10 0 -22
-1 -28 -4 -15 -7 -53 -14 -235 -4 -91 -10 -181 -14 -200 -6 -32 -7 -30 -12 25
l-7 60 -1 -54 c-1 -30 -6 -51 -10 -45 -4 5 -5 155 -2 332 3 178 2 326 -2 329
-5 2 -8 -18 -8 -46 0 -43 -3 -50 -19 -48 -11 0 -17 6 -14 14 3 7 1 13 -5 13
-6 0 -12 -6 -15 -12 -2 -7 -2 9 1 36 3 28 1 47 -4 43 -5 -3 -8 27 -7 69 1 41
-2 74 -7 74 -5 0 -5 14 0 31 5 18 7 36 4 41 -3 5 -8 120 -10 256 -3 187 -1
248 9 255 9 7 9 10 0 14 -10 3 -10 10 -2 25 7 13 7 23 2 27 -6 3 -12 17 -16
29 -3 13 -3 21 0 18 4 -3 12 -1 19 5 16 13 22 -9 27 -106 8 -143 52 -555 59
-555 4 0 7 5 5 11 -1 6 4 14 10 16 8 3 13 -3 13 -14 0 -10 12 5 26 32 23 45
24 54 13 87 -7 23 -16 35 -23 31 -6 -4 -5 0 2 9 7 9 11 28 8 42 -3 14 0 28 5
31 5 4 9 14 9 23 0 15 -2 15 -10 2 -12 -19 -8 86 5 113 6 14 3 20 -14 24 -19
5 -21 12 -21 72 0 36 -3 117 -7 179 l-6 112 -45 0 -44 0 3 -44 c5 -55 -17 -52
-26 5 -6 32 -11 39 -30 39 -13 0 -26 -6 -28 -12 -4 -10 -6 -10 -6 -1 -1 9 -96
12 -396 12 l-394 1 -1 -1250z m785 1129 c8 -12 -4 -104 -12 -96 -3 3 -6 28 -6
56 -2 49 5 63 18 40z m1133 -52 c-1 -2 3 -11 10 -19 7 -9 15 -26 17 -38 8 -39
27 -94 46 -127 10 -18 16 -39 13 -47 -3 -8 -1 -23 6 -33 10 -16 11 -15 6 7 -3
14 -1 32 4 40 6 10 10 -181 9 -520 0 -478 -1 -531 -14 -495 -8 22 -15 48 -15
58 0 26 -14 21 -33 -13 -23 -38 -34 -38 -42 0 -5 24 -12 30 -32 30 -17 0 -24
4 -20 14 3 8 -2 16 -14 19 -10 3 -19 10 -19 17 0 6 4 9 8 6 5 -3 10 110 11
252 1 141 5 259 7 261 3 3 14 0 25 -7 22 -14 20 -18 39 63 7 28 24 82 37 120
30 83 32 155 8 210 -10 22 -20 54 -22 70 -3 17 -8 31 -13 33 -5 2 -7 9 -4 16
3 7 -7 28 -22 45 -22 26 -25 34 -13 41 13 8 24 7 17 -3z m-1081 -104 c-3 -10
-5 -4 -5 12 0 17 2 24 5 18 2 -7 2 -21 0 -30z m1853 -28 c0 -7 -222 -116 -227
-111 -4 4 204 114 220 115 4 1 7 -1 7 -4z m-6 -82 c-2 -88 -2 -91 -14 -73 -8
13 -11 13 -19 1 -5 -8 -14 -10 -21 -6 -8 5 -11 4 -7 -2 6 -9 -8 -15 -73 -29
-8 -1 -18 2 -22 9 -6 9 -8 9 -8 1 0 -7 -7 -15 -16 -18 -14 -5 -15 -4 -4 9 10
12 10 15 -2 15 -8 0 -20 -11 -26 -25 -10 -21 -16 -24 -39 -19 -16 4 -46 6 -68
6 -44 -2 -41 3 28 39 37 19 42 17 38 -18 -1 -6 3 -14 9 -18 6 -4 10 9 10 32 0
36 3 41 45 61 l45 22 1 -23 2 -22 4 22 c2 12 11 27 19 34 14 11 102 56 114 58
3 1 5 -25 4 -56z m-1727 -5 c-3 -7 -5 -2 -5 12 0 14 2 19 5 13 2 -7 2 -19 0
-25z m1110 -75 c-3 -10 -5 -2 -5 17 0 19 2 27 5 18 2 -10 2 -26 0 -35z m-1110
15 c-3 -8 -6 -5 -6 6 -1 11 2 17 5 13 3 -3 4 -12 1 -19z m1137 -529 c2 -333 0
-472 -4 -359 -9 226 -12 915 -4 908 3 -3 6 -250 8 -549z m341 542 c-12 -10
-163 -91 -170 -91 -3 0 -1 9 5 21 7 11 17 18 23 16 7 -3 42 10 77 29 68 35 80
39 65 25z m-1608 -33 c-3 -7 -5 -2 -5 12 0 14 2 19 5 13 2 -7 2 -19 0 -25z
m1123 -38 c0 -5 -5 -10 -11 -10 -5 0 -7 5 -4 10 3 6 8 10 11 10 2 0 4 -4 4
-10z m-983 -32 c-3 -8 -6 -5 -6 6 -1 11 2 17 5 13 3 -3 4 -12 1 -19z m1100
-280 c-1 -57 -3 -11 -3 102 0 113 2 159 3 103 2 -57 2 -149 0 -205z m187 285
c4 -9 4 -40 0 -69 -5 -42 -11 -54 -30 -63 -24 -11 -24 -10 -24 49 0 60 15 100
36 100 7 0 15 -8 18 -17z m451 7 c3 -6 -1 -7 -9 -4 -18 7 -21 14 -7 14 6 0 13
-4 16 -10z m-1758 -92 c-2 -13 -4 -3 -4 22 0 25 2 35 4 23 2 -13 2 -33 0 -45z
m1430 38 c-9 -10 -14 -11 -19 -2 -5 7 -8 4 -8 -7 0 -11 -6 -17 -12 -14 -22 7
-14 31 12 37 32 9 43 3 27 -14z m630 -78 c-2 -18 -4 -6 -4 27 0 33 2 48 4 33
2 -15 2 -42 0 -60z m-1284 32 c16 -31 18 -61 16 -260 -2 -292 -3 -279 19 -273
14 3 17 12 14 34 -3 22 0 29 12 29 10 0 16 -9 16 -25 0 -14 5 -25 10 -25 6 0
10 -7 10 -15 0 -9 -6 -15 -12 -14 -25 3 -38 -1 -38 -12 0 -6 6 -9 14 -6 9 4
16 -5 20 -25 3 -17 4 -33 1 -36 -3 -3 -5 2 -5 12 0 13 -5 16 -21 11 -16 -5
-20 -3 -17 11 2 9 -2 19 -8 21 -7 2 -11 -4 -10 -13 0 -9 -5 -19 -12 -22 -9 -3
-13 3 -11 14 1 11 -1 48 -6 84 -5 36 -8 69 -6 74 1 6 -2 19 -8 30 -22 48 -31
125 -31 281 0 153 1 166 18 163 9 -2 25 -19 35 -38z m-1156 -2 c-3 -7 -5 -2
-5 12 0 14 2 19 5 13 2 -7 2 -19 0 -25z m430 -30 c-3 -7 -5 -2 -5 12 0 14 2
19 5 13 2 -7 2 -19 0 -25z m-20 -20 c-3 -7 -5 -2 -5 12 0 14 2 19 5 13 2 -7 2
-19 0 -25z m14 -21 c-10 -9 -11 -8 -5 6 3 10 9 15 12 12 3 -3 0 -11 -7 -18z
m1246 -81 c18 -21 21 -41 27 -177 3 -85 6 -224 6 -309 l0 -155 57 2 58 1 -67
-10 c-63 -10 -99 -32 -57 -35 11 -1 17 2 14 8 -4 5 9 9 27 8 30 -1 31 -2 8 -8
l-25 -7 28 -6 c19 -4 27 -1 27 9 0 10 10 14 34 12 19 -2 38 0 42 4 4 4 39 7
78 7 50 0 66 -3 56 -10 -13 -8 -12 -10 3 -10 9 0 17 -4 17 -9 0 -12 -43 -1
-52 13 -5 7 -8 6 -8 -4 0 -12 -16 -16 -71 -18 -46 -1 -68 1 -64 8 3 5 2 10 -4
10 -5 0 -11 -5 -13 -11 -2 -7 -33 -13 -73 -16 l-70 -3 -4 297 c-2 164 -5 328
-6 366 -1 37 1 67 5 67 3 0 16 -11 27 -24z m-2120 -68 c-3 -8 -6 -5 -6 6 -1
11 2 17 5 13 3 -3 4 -12 1 -19z m2197 -99 c-11 -19 -23 -8 -20 19 5 39 6 40
17 14 5 -13 7 -28 3 -33z m-719 31 c-3 -5 -12 -10 -18 -10 -7 0 -6 4 3 10 19
12 23 12 15 0z m-1485 -55 c0 -8 -4 -15 -10 -15 -5 0 -7 7 -4 15 4 8 8 15 10
15 2 0 4 -7 4 -15z m1957 -77 c-2 -18 -4 -4 -4 32 0 36 2 50 4 33 2 -18 2 -48
0 -65z m241 64 c6 -18 -15 -14 -22 4 -4 10 -1 14 6 12 6 -2 14 -10 16 -16z
m-1531 -59 c-3 -10 -5 -2 -5 17 0 19 2 27 5 18 2 -10 2 -26 0 -35z m-547 -23
c0 -5 -4 -10 -10 -10 -5 0 -10 -7 -10 -15 0 -19 -26 -20 -33 -1 -4 10 -1 13 8
9 8 -3 18 2 21 11 7 18 24 22 24 6z m682 -20 c-2 -16 -5 -30 -7 -30 -2 0 -5
14 -7 30 -3 19 0 30 7 30 7 0 10 -11 7 -30z m-764 -4 c-7 -8 -15 -12 -17 -11
-5 6 10 25 20 25 5 0 4 -6 -3 -14z m2139 -23 c-3 -10 -5 -4 -5 12 0 17 2 24 5
18 2 -7 2 -21 0 -30z m-817 -7 c14 -19 28 -32 32 -30 4 2 10 0 13 -6 8 -14 35
6 35 26 0 8 6 11 15 8 8 -4 15 -1 15 6 0 6 4 9 9 6 6 -4 7 -195 1 -383 0 -23
-31 -44 -54 -37 -11 4 -33 7 -48 6 -19 -2 -28 4 -33 18 -3 11 -8 101 -10 200
-2 99 -7 189 -10 200 -10 30 7 23 35 -14z m-1418 -10 c2 -19 0 -32 -4 -30 -8
5 -12 64 -4 64 2 0 6 -15 8 -34z m687 -31 c0 -5 -4 -3 -9 5 -5 8 -9 22 -9 30
0 16 17 -16 18 -35z m-465 19 c18 -18 20 -30 6 -39 -5 -3 -10 2 -10 12 -1 17
-1 17 -11 -1 -7 -11 -8 -21 -2 -25 12 -7 13 -42 2 -35 -14 8 -21 65 -9 78 8
11 8 15 -2 19 -9 4 -9 6 -1 6 6 1 19 -6 27 -15z m-123 -7 c-1 -12 -15 -9 -19
4 -3 6 1 10 8 8 6 -3 11 -8 11 -12z m1916 -64 c-2 -16 -4 -3 -4 27 0 30 2 43
4 28 2 -16 2 -40 0 -55z m-1160 25 c-3 -7 -5 -2 -5 12 0 14 2 19 5 13 2 -7 2
-19 0 -25z m-250 -20 c-3 -7 -5 -2 -5 12 0 14 2 19 5 13 2 -7 2 -19 0 -25z
m3193 18 c-7 -7 -13 -7 -20 0 -6 6 -3 10 10 10 13 0 16 -4 10 -10z m-3673 -28
c-3 -8 -6 -5 -6 6 -1 11 2 17 5 13 3 -3 4 -12 1 -19z m67 -21 l7 -28 -21 21
c-11 11 -17 26 -13 35 7 20 18 9 27 -28z m-196 3 c0 -16 -3 -30 -7 -30 -4 0
-7 10 -5 23 1 12 3 25 3 30 2 19 8 4 9 -23z m649 -2 c-3 -8 -6 -5 -6 6 -1 11
2 17 5 13 3 -3 4 -12 1 -19z m678 -116 c-4 -24 -8 -42 -9 -40 -2 1 -6 30 -9
63 -4 42 -3 51 3 30 8 -29 9 -29 8 10 0 57 5 67 9 20 3 -22 2 -60 -2 -83z
m391 97 c8 -13 -16 -34 -53 -46 -28 -10 -31 -9 -26 4 4 11 2 14 -5 9 -8 -4
-12 -1 -12 10 0 10 3 15 6 11 4 -3 12 0 20 7 15 15 61 18 70 5z m301 -142 c-2
-23 -3 -1 -3 48 0 50 1 68 3 42 2 -26 2 -67 0 -90z m-209 70 c9 -10 3 -14 -30
-16 -23 -1 -46 -5 -52 -8 -6 -4 -5 1 3 10 8 10 23 15 37 13 13 -3 24 0 24 5 0
12 6 11 18 -4z m-1593 -6 c3 -5 2 -12 -3 -15 -5 -3 -9 1 -9 9 0 17 3 19 12 6z
m652 -28 c-3 -10 -5 -4 -5 12 0 17 2 24 5 18 2 -7 2 -21 0 -30z m783 7 c0 -5
-7 -10 -16 -10 -8 0 -12 5 -9 10 3 6 10 10 16 10 5 0 9 -4 9 -10z m280 -27 c0
-19 -3 -24 -10 -17 -6 6 -8 18 -4 27 9 24 14 21 14 -10z m-170 -29 c-7 -7 -20
-13 -29 -13 -13 1 -13 2 2 6 11 3 17 14 17 31 1 24 2 25 11 9 8 -13 7 -22 -1
-33z m33 26 c-3 -12 -8 -19 -11 -16 -5 6 5 36 12 36 2 0 2 -9 -1 -20z m57 0
c0 -5 -12 -10 -27 -9 l-28 1 25 8 c14 4 26 8 28 9 1 1 2 -3 2 -9z m-1653 -42
c-3 -7 -5 -2 -5 12 0 14 2 19 5 13 2 -7 2 -19 0 -25z m1429 -5 c-11 -11 -19 6
-11 24 8 17 8 17 12 0 3 -10 2 -21 -1 -24z m844 28 c0 -10 -109 -20 -125 -12
-5 3 13 9 40 12 80 9 85 9 85 0z m57 3 c-3 -3 -12 -4 -19 -1 -8 3 -5 6 6 6 11
1 17 -2 13 -5z m-647 -11 c0 -5 -13 -8 -29 -8 -16 0 -27 3 -24 8 2 4 15 7 29
7 13 0 24 -3 24 -7z m697 -19 c-3 -3 -12 -4 -19 -1 -8 3 -5 6 6 6 11 1 17 -2
13 -5z m71 -3 c-2 -5 5 -16 16 -24 17 -12 12 -14 -44 -16 -38 -1 -60 2 -56 8
3 5 0 12 -6 14 -7 3 2 4 21 2 43 -5 65 7 31 16 -23 6 -22 7 8 8 17 1 31 -3 30
-8z m-1018 -21 c0 -5 -5 -10 -11 -10 -5 0 -7 5 -4 10 3 6 8 10 11 10 2 0 4 -4
4 -10z m-564 -29 c0 -11 -3 -18 -7 -15 -4 2 -10 -2 -12 -8 -3 -7 -5 -1 -4 15
2 30 23 38 23 8z m945 -28 c17 5 19 -1 19 -49 0 -56 3 -60 53 -56 9 1 17 -3
17 -8 0 -6 -9 -10 -21 -10 -12 0 -23 -8 -26 -20 -5 -19 -23 -29 -23 -12 0 4
-27 14 -60 21 -57 13 -81 31 -41 31 14 0 18 5 14 20 -7 26 1 25 27 -2 l20 -22
0 22 c0 12 -5 31 -11 41 -8 11 -9 29 -4 47 6 22 9 25 13 11 2 -13 10 -17 23
-14z m-683 -5 c-3 -7 -15 -15 -28 -16 -21 -3 -22 -2 -11 12 16 19 44 21 39 4z
m331 -32 c1 17 6 20 31 16 16 -2 35 -10 41 -18 14 -17 5 -18 -22 -1 -18 10
-23 9 -40 -12 -11 -14 -19 -18 -19 -10 0 11 -3 11 -11 -1 -9 -12 -10 -12 -5 3
3 10 7 31 7 45 1 23 3 22 9 -8 4 -20 8 -26 9 -14z m-1568 -61 c-8 -31 -7 -36
5 -31 16 6 20 -19 4 -29 -5 -3 -10 -1 -10 5 0 7 -6 10 -14 7 -13 -5 -15 19 -6
83 0 3 5 -2 10 -10 8 -13 10 -12 10 4 0 11 3 17 6 14 3 -4 1 -23 -5 -43z
m1719 14 c0 -5 -7 -9 -15 -9 -8 0 -15 7 -15 15 0 9 6 12 15 9 8 -4 15 -10 15
-15z m-1593 -71 c-2 -18 -4 -6 -4 27 0 33 2 48 4 33 2 -15 2 -42 0 -60z m1408
63 c-3 -5 -1 -12 3 -15 5 -3 7 -17 4 -32 l-5 -26 -23 26 c-30 31 -30 34 -1 46
29 12 29 12 22 1z m-465 -7 c0 -3 -6 -12 -14 -20 -13 -12 -15 -12 -13 6 1 17
27 31 27 14z m237 0 c-3 -3 -12 -4 -19 -1 -8 3 -5 6 6 6 11 1 17 -2 13 -5z
m743 -17 c0 -8 -7 -14 -15 -14 -16 0 -19 9 -8 20 11 11 23 8 23 -6z m-619 -33
c5 -14 3 -21 -6 -21 -7 0 -15 11 -18 24 -5 28 13 26 24 -3z m1394 16 c-16 -4
-24 -8 -16 -9 8 0 12 -3 9 -6 -3 -4 -18 -3 -34 1 -25 6 -26 8 -9 15 11 4 34 7
50 7 l30 0 -30 -8z m-2011 -79 c-2 -86 -11 -87 -13 -1 -1 39 2 69 6 67 5 -3 7
-33 7 -66z m236 59 c0 -5 -4 -10 -10 -10 -5 0 -10 5 -10 10 0 6 5 10 10 10 6
0 10 -4 10 -10z m1850 -11 c-14 -4 -32 -7 -39 -8 -21 -1 -1 16 24 21 30 7 43
-5 15 -13z m216 -16 c-57 -13 -76 -11 -76 7 0 5 18 8 41 7 22 -2 42 0 45 4 2
4 14 5 26 1 17 -4 8 -9 -36 -19z m-1616 -30 c0 -22 -2 -25 -10 -13 -13 20 -13
40 0 40 6 0 10 -12 10 -27z m1967 21 c-3 -3 -12 -4 -19 -1 -8 3 -5 6 6 6 11 1
17 -2 13 -5z m56 -1 c-7 -2 -19 -2 -25 0 -7 3 -2 5 12 5 14 0 19 -2 13 -5z
m-3396 -75 c-2 -13 -4 -5 -4 17 -1 22 1 32 4 23 2 -10 2 -28 0 -40z m1220 20
c-3 -8 -6 -5 -6 6 -1 11 2 17 5 13 3 -3 4 -12 1 -19z m-60 -40 c-2 -13 -4 -5
-4 17 -1 22 1 32 4 23 2 -10 2 -28 0 -40z m563 22 c0 -5 -2 -10 -4 -10 -3 0
-8 5 -11 10 -3 6 -1 10 4 10 6 0 11 -4 11 -10z m50 -50 c0 -20 -5 -30 -15 -30
-10 0 -15 10 -15 30 0 20 5 30 15 30 10 0 15 -10 15 -30z m-1103 -27 c-3 -10
-5 -2 -5 17 0 19 2 27 5 18 2 -10 2 -26 0 -35z m1197 11 c9 -24 2 -26 -12 -4
-7 11 -8 20 -3 20 5 0 12 -7 15 -16z m-1877 -46 c-3 -7 -5 -2 -5 12 0 14 2 19
5 13 2 -7 2 -19 0 -25z m-57 -68 c4 0 5 -10 2 -22 -6 -23 -6 -23 -13 2 -4 14
-7 32 -7 40 0 10 2 9 5 -2 2 -10 8 -18 13 -18z m60 -25 c0 -8 -7 -15 -15 -15
-8 0 -15 5 -15 11 0 5 5 7 10 4 6 -3 10 -1 10 4 0 6 2 11 5 11 3 0 5 -7 5 -15z
m1117 -35 c22 -17 16 -49 -7 -35 -10 6 -10 9 0 15 8 5 0 12 -24 20 -20 6 -36
18 -36 26 0 12 4 13 23 3 12 -7 32 -20 44 -29z m-1130 -47 c-3 -10 -5 -2 -5
17 0 19 2 27 5 18 2 -10 2 -26 0 -35z m1033 -9 c0 -2 -9 -4 -21 -4 -11 0 -18
4 -14 10 5 8 35 3 35 -6z m253 0 c9 -3 17 -14 17 -23 0 -10 14 -22 33 -29 24
-9 29 -15 18 -21 -16 -10 -43 -3 -36 9 3 5 -5 6 -17 2 -16 -4 -19 -2 -13 8 5
8 4 11 -2 7 -6 -4 -19 1 -29 9 -10 9 -12 12 -4 8 12 -5 12 -4 3 6 -6 7 -33 19
-60 27 l-48 13 61 -4 c33 -3 68 -8 77 -12z m120 -11 c-7 -2 -19 -2 -25 0 -7 3
-2 5 12 5 14 0 19 -2 13 -5z m-60 -10 c-7 -2 -19 -2 -25 0 -7 3 -2 5 12 5 14
0 19 -2 13 -5z m-273 -13 c0 -5 -7 -7 -15 -4 -8 4 -15 8 -15 10 0 2 7 4 15 4
8 0 15 -4 15 -10z m208 -40 c9 -5 31 -15 47 -22 25 -9 27 -12 10 -16 -10 -2
-21 1 -23 7 -2 6 -14 11 -27 11 -12 0 -28 7 -35 15 -15 18 1 21 28 5z m-1281
-82 c-3 -7 -5 -2 -5 12 0 14 2 19 5 13 2 -7 2 -19 0 -25z m0 -185 c-2 -21 -4
-6 -4 32 0 39 2 55 4 38 2 -18 2 -50 0 -70z m3050 81 c-3 -3 -12 -4 -19 -1 -8
3 -5 6 6 6 11 1 17 -2 13 -5z"/>
<path d="M2011 2004 c0 -11 3 -14 6 -6 3 7 2 16 -1 19 -3 4 -6 -2 -5 -13z"/>
<path d="M2560 2050 c-12 -8 -9 -9 12 -8 15 1 24 6 22 10 -7 10 -16 10 -34 -2z"/>
<path d="M862 2480 c0 -14 2 -19 5 -12 2 6 2 18 0 25 -3 6 -5 1 -5 -13z"/>
<path d="M1485 2449 c-5 -33 -3 -55 4 -62 8 -8 11 -7 11 4 0 12 2 12 10 -1 7
-11 10 3 10 48 0 47 -3 62 -14 62 -9 0 -16 -17 -21 -51z"/>
<path d="M3370 2489 c0 -7 16 -34 35 -60 36 -50 43 -69 25 -69 -5 0 -10 -5
-10 -11 0 -5 9 -9 19 -7 10 2 29 -6 41 -17 14 -13 20 -15 18 -5 -2 7 5 16 15
18 10 2 17 -2 17 -12 0 -9 -5 -16 -11 -16 -8 0 -8 -5 1 -15 15 -18 37 -20 42
-4 2 7 18 3 41 -11 20 -12 34 -26 31 -32 -3 -5 0 -8 7 -6 14 2 132 -43 214
-81 22 -11 62 -28 90 -38 27 -10 53 -19 57 -21 5 -2 8 3 8 11 0 8 -11 18 -25
21 -14 4 -49 17 -78 30 -28 14 -69 30 -89 36 -34 10 -38 15 -40 48 l-1 37 -4
-32 c-2 -18 -7 -33 -9 -33 -16 0 -155 75 -170 91 -13 15 -14 22 -5 33 10 12 7
16 -24 22 -20 3 -39 13 -42 21 -3 8 -13 11 -23 8 -12 -4 -20 1 -25 17 l-7 23
-6 -23 c-7 -22 -9 -21 -40 23 -17 25 -32 50 -32 55 0 6 -4 10 -10 10 -5 0 -10
-5 -10 -11z"/>
<path d="M3461 2483 c0 -11 3 -13 6 -5 11 27 23 9 24 -35 1 -30 4 -37 6 -20 5
32 10 33 35 10 18 -16 19 -16 13 15 -3 18 -3 32 0 32 7 0 127 -76 160 -102 17
-13 42 -30 57 -37 26 -13 26 -15 10 -28 -15 -13 -15 -13 6 -3 27 13 45 5 38
-18 -3 -10 -1 -24 5 -32 9 -13 10 -13 8 0 -3 29 1 41 11 35 6 -4 8 -11 5 -16
-3 -5 1 -6 9 -3 9 3 26 -5 41 -20 14 -14 25 -22 25 -19 0 4 6 1 12 -5 10 -10
10 -15 -2 -22 -8 -5 -11 -12 -6 -17 4 -4 12 0 17 10 9 16 12 16 39 2 27 -14
30 -14 30 0 0 8 -4 15 -10 15 -19 0 -100 55 -100 69 0 8 -3 11 -6 8 -15 -14
-107 50 -97 67 3 6 3 8 -1 4 -4 -3 -24 1 -45 10 -48 22 -185 104 -189 114 -2
5 -26 8 -53 8 -40 0 -49 -3 -48 -17z"/>
<path d="M3745 2490 c3 -5 8 -10 11 -10 2 0 4 5 4 10 0 6 -5 10 -11 10 -5 0
-7 -4 -4 -10z"/>
<path d="M1571 2474 c0 -11 3 -14 6 -6 3 7 2 16 -1 19 -3 4 -6 -2 -5 -13z"/>
<path d="M3882 2462 c-11 -11 -23 -17 -27 -14 -3 4 -3 -1 0 -10 6 -15 10 -14
33 7 14 13 23 27 20 30 -4 4 -15 -2 -26 -13z"/>
<path d="M1348 2465 c-3 -6 -9 -91 -12 -190 -3 -99 -8 -234 -11 -300 -3 -66
-8 -236 -11 -379 -5 -216 -4 -257 7 -251 11 6 12 5 2 -6 -18 -18 -16 -34 2
-19 8 7 15 19 15 28 0 9 10 26 22 39 12 13 16 23 10 23 -14 0 -5 764 9 792 12
22 11 31 0 24 -5 -4 -9 24 -8 63 1 38 5 65 8 59 4 -7 9 -7 13 0 7 12 -22 25
-36 16 -5 -4 -4 4 3 17 14 27 21 81 9 74 -5 -3 -10 0 -12 7 -3 7 -7 8 -10 3z"/>
<path d="M3755 2451 c-11 -5 -24 -6 -29 -3 -5 3 -6 0 -2 -6 10 -16 27 -15 50
3 21 16 13 18 -19 6z"/>
<path d="M3817 2443 c-2 -5 -5 -26 -6 -48 -3 -35 -1 -38 13 -26 18 15 22 61 5
61 -5 0 -7 5 -4 10 3 6 4 10 1 10 -3 0 -7 -3 -9 -7z"/>
<path d="M3246 2407 c-11 -8 -17 -19 -15 -24 2 -6 12 0 22 13 20 27 19 30 -7
11z"/>
<path d="M2950 2350 c-9 -6 -10 -10 -3 -10 6 0 15 5 18 10 8 12 4 12 -15 0z"/>
<path d="M3920 2309 c0 -11 4 -18 10 -14 5 3 7 12 3 20 -7 21 -13 19 -13 -6z"/>
<path d="M1471 2233 c-1 -59 0 -63 22 -62 16 1 18 2 5 6 -10 2 -18 9 -18 14 0
5 8 9 18 10 10 0 12 3 5 6 -7 2 -13 14 -14 26 0 12 -4 31 -9 42 -6 14 -9 2 -9
-42z"/>
<path d="M3743 2275 c-3 -9 -3 -18 -1 -21 3 -3 8 4 11 16 6 23 -1 27 -10 5z"/>
<path d="M2630 2230 c-9 -6 -10 -10 -3 -10 6 0 15 5 18 10 8 12 4 12 -15 0z"/>
<path d="M3505 2220 c-3 -6 1 -7 9 -4 18 7 21 14 7 14 -6 0 -13 -4 -16 -10z"/>
<path d="M3709 2160 l-24 -20 28 11 c15 7 27 16 27 21 0 12 -5 10 -31 -12z"/>
<path d="M3970 2169 c0 -5 5 -7 10 -4 6 3 10 8 10 11 0 2 -4 4 -10 4 -5 0 -10
-5 -10 -11z"/>
<path d="M3600 2125 c-8 -9 -8 -15 -2 -15 12 0 26 19 19 26 -2 2 -10 -2 -17
-11z"/>
<path d="M3205 2110 c-3 -5 -1 -10 4 -10 6 0 11 5 11 10 0 6 -2 10 -4 10 -3 0
-8 -4 -11 -10z"/>
<path d="M1293 2045 c0 -38 2 -53 4 -32 2 20 2 52 0 70 -2 17 -4 1 -4 -38z"/>
<path d="M1499 1833 c0 -148 -2 -276 -4 -285 -2 -11 3 -16 15 -15 10 1 16 6
12 11 -3 6 -4 133 -3 283 2 190 -1 273 -8 273 -8 0 -11 -84 -12 -267z"/>
<path d="M3482 2070 c0 -14 2 -19 5 -12 2 6 2 18 0 25 -3 6 -5 1 -5 -13z"/>
<path d="M3831 2064 c0 -11 3 -14 6 -6 3 7 2 16 -1 19 -3 4 -6 -2 -5 -13z"/>
<path d="M3673 2048 c-2 -16 1 -18 10 -9 7 7 8 14 1 21 -6 6 -10 2 -11 -12z"/>
<path d="M3277 2030 c-3 -11 -2 -20 3 -20 12 0 31 26 23 33 -11 12 -21 7 -26
-13z"/>
<path d="M3717 1989 c7 -7 15 -10 18 -7 3 3 -2 9 -12 12 -14 6 -15 5 -6 -5z"/>
<path d="M3240 1979 c0 -5 5 -7 10 -4 6 3 10 8 10 11 0 2 -4 4 -10 4 -5 0 -10
-5 -10 -11z"/>
<path d="M3455 1979 c-11 -17 1 -21 15 -4 8 9 8 15 2 15 -6 0 -14 -5 -17 -11z"/>
<path d="M3674 1982 c3 -5 0 -12 -6 -15 -7 -2 -10 -7 -7 -11 3 -4 12 0 18 8 9
11 9 16 0 22 -7 4 -9 3 -5 -4z"/>
<path d="M3880 1910 c0 -5 7 -7 15 -4 8 4 15 8 15 10 0 2 -7 4 -15 4 -8 0 -15
-4 -15 -10z"/>
<path d="M3995 1911 c-3 -5 -1 -12 5 -16 5 -3 10 1 10 9 0 18 -6 21 -15 7z"/>
<path d="M3555 1859 c-11 -17 1 -21 15 -4 8 9 8 15 2 15 -6 0 -14 -5 -17 -11z"/>
<path d="M3896 1858 c3 -5 10 -6 15 -3 13 9 11 12 -6 12 -8 0 -12 -4 -9 -9z"/>
<path d="M912 1840 c0 -14 2 -19 5 -12 2 6 2 18 0 25 -3 6 -5 1 -5 -13z"/>
<path d="M3491 1844 c0 -11 3 -14 6 -6 3 7 2 16 -1 19 -3 4 -6 -2 -5 -13z"/>
<path d="M3757 1843 c-4 -3 -7 -11 -7 -17 0 -6 5 -5 12 2 6 6 9 14 7 17 -3 3
-9 2 -12 -2z"/>
<path d="M1287 1823 c-4 -3 -7 -11 -7 -17 0 -6 5 -5 12 2 6 6 9 14 7 17 -3 3
-9 2 -12 -2z"/>
<path d="M3570 1819 c0 -5 5 -7 10 -4 6 3 10 8 10 11 0 2 -4 4 -10 4 -5 0 -10
-5 -10 -11z"/>
<path d="M3605 1810 c-3 -5 -1 -10 4 -10 6 0 11 5 11 10 0 6 -2 10 -4 10 -3 0
-8 -4 -11 -10z"/>
<path d="M3708 1797 c-3 -19 -2 -25 4 -19 6 6 8 18 6 28 -3 14 -5 12 -10 -9z"/>
<path d="M3770 1811 c0 -6 4 -13 10 -16 6 -3 7 1 4 9 -7 18 -14 21 -14 7z"/>
<path d="M3931 1804 c0 -11 3 -14 6 -6 3 7 2 16 -1 19 -3 4 -6 -2 -5 -13z"/>
<path d="M3516 1774 c-5 -14 -4 -15 9 -4 17 14 19 20 6 20 -5 0 -12 -7 -15
-16z"/>
<path d="M3898 1783 c7 -3 16 -2 19 1 4 3 -2 6 -13 5 -11 0 -14 -3 -6 -6z"/>
<path d="M3491 1764 c0 -11 3 -14 6 -6 3 7 2 16 -1 19 -3 4 -6 -2 -5 -13z"/>
<path d="M3871 1724 c0 -11 3 -14 6 -6 3 7 2 16 -1 19 -3 4 -6 -2 -5 -13z"/>
<path d="M3598 1693 c7 -3 16 -2 19 1 4 3 -2 6 -13 5 -11 0 -14 -3 -6 -6z"/>
<path d="M996 1681 c-4 -7 -5 -15 -2 -18 9 -9 19 4 14 18 -4 11 -6 11 -12 0z"/>
<path d="M3290 1668 c0 -9 -6 -19 -12 -21 -10 -4 -10 -6 0 -6 14 -1 28 26 18
36 -3 4 -6 -1 -6 -9z"/>
<path d="M3613 1663 c-7 -2 -13 -9 -13 -14 0 -6 6 -7 13 -2 6 4 20 6 30 5 9
-2 17 2 17 7 0 11 -25 13 -47 4z"/>
<path d="M940 1624 c0 -21 4 -33 10 -29 6 3 10 19 10 36 0 16 -4 29 -10 29 -5
0 -10 -16 -10 -36z"/>
<path d="M996 1613 c9 -36 14 -42 14 -15 0 12 0 25 1 29 0 4 -5 9 -11 11 -7 3
-9 -5 -4 -25z"/>
<path d="M3620 1630 c0 -5 5 -10 10 -10 6 0 10 5 10 10 0 6 -4 10 -10 10 -5 0
-10 -4 -10 -10z"/>
<path d="M1033 1540 c0 -47 2 -66 4 -42 2 23 2 61 0 85 -2 23 -4 4 -4 -43z"/>
<path d="M3825 1590 c-10 -11 -13 -20 -8 -20 13 0 38 29 31 35 -3 3 -13 -4
-23 -15z"/>
<path d="M3960 1589 c0 -5 11 -9 25 -9 14 0 25 2 25 4 0 2 -11 6 -25 8 -14 3
-25 1 -25 -3z"/>
<path d="M3893 1574 c-3 -8 -1 -20 5 -26 7 -7 10 -2 9 16 -2 30 -5 32 -14 10z"/>
<path d="M3860 1559 c0 -5 5 -7 10 -4 6 3 10 8 10 11 0 2 -4 4 -10 4 -5 0 -10
-5 -10 -11z"/>
<path d="M3893 1511 c1 -15 4 -17 14 -9 7 5 10 14 7 19 -10 16 -23 9 -21 -10z"/>
<path d="M3473 1498 c-7 -8 -8 -19 -3 -28 8 -12 10 -12 15 2 10 26 2 43 -12
26z"/>
<path d="M3802 1495 c-7 -8 -9 -15 -4 -15 5 0 15 7 22 15 16 19 -1 19 -18 0z"/>
<path d="M3721 1484 c0 -11 3 -14 6 -6 3 7 2 16 -1 19 -3 4 -6 -2 -5 -13z"/>
<path d="M3908 1473 c7 -3 16 -2 19 1 4 3 -2 6 -13 5 -11 0 -14 -3 -6 -6z"/>
<path d="M3976 1467 c3 -10 9 -15 12 -12 3 3 0 11 -7 18 -10 9 -11 8 -5 -6z"/>
<path d="M1037 1419 c4 -13 8 -18 11 -10 2 7 -1 18 -6 23 -8 8 -9 4 -5 -13z"/>
<path d="M3877 1433 c-11 -10 -8 -25 3 -18 6 4 22 -1 37 -10 18 -12 28 -14 36
-6 6 6 9 11 7 12 -42 7 -56 11 -58 19 -4 12 -16 13 -25 3z"/>
<path d="M1006 1411 c-4 -7 -5 -15 -2 -18 9 -9 19 4 14 18 -4 11 -6 11 -12 0z"/>
<path d="M3768 1413 c7 -3 16 -2 19 1 4 3 -2 6 -13 5 -11 0 -14 -3 -6 -6z"/>
<path d="M3870 1385 c0 -8 2 -15 4 -15 2 0 6 7 10 15 3 8 1 15 -4 15 -6 0 -10
-7 -10 -15z"/>
<path d="M3896 1385 c-3 -8 -1 -15 4 -15 13 0 22 18 11 24 -5 3 -11 -1 -15 -9z"/>
<path d="M1113 1375 c0 -8 4 -12 9 -9 5 3 6 10 3 15 -9 13 -12 11 -12 -6z"/>
<path d="M3958 1368 c5 -5 16 -8 23 -6 8 3 3 7 -10 11 -17 4 -21 3 -13 -5z"/>
<path d="M1060 1350 c6 -11 13 -20 16 -20 2 0 0 9 -6 20 -6 11 -13 20 -16 20
-2 0 0 -9 6 -20z"/>
<path d="M1140 1366 c0 -2 8 -10 18 -17 15 -13 16 -12 3 4 -13 16 -21 21 -21
13z"/>
<path d="M1174 1328 c-4 -7 -4 -10 1 -6 4 4 16 3 26 -3 11 -5 19 -7 19 -5 0 3
-9 10 -19 16 -15 7 -22 7 -27 -2z"/>
<path d="M963 1240 c0 -41 2 -58 4 -37 2 20 2 54 0 75 -2 20 -4 3 -4 -38z"/>
<path d="M1198 1292 c-15 -6 -14 -9 7 -30 14 -14 26 -19 30 -12 3 5 -1 13 -10
16 -9 4 -14 13 -11 20 3 8 4 14 3 13 -1 0 -10 -3 -19 -7z"/>
<path d="M1120 1095 c0 -8 6 -15 14 -15 22 0 28 17 10 24 -22 9 -24 8 -24 -9z"/>
<path d="M1190 1097 c0 -21 12 -28 27 -16 19 16 16 29 -7 29 -11 0 -20 -6 -20
-13z"/>
<path d="M3773 23 c9 -2 25 -2 35 0 9 3 1 5 -18 5 -19 0 -27 -2 -17 -5z"/>
<path d="M3855 10 c3 -5 13 -10 21 -10 8 0 14 5 14 10 0 6 -9 10 -21 10 -11 0
-17 -4 -14 -10z"/>
</g>
</svg>
